<svg xmlns="http://www.w3.org/2000/svg" viewBox="0 0 32 32" fill="none" stroke="currentColor" stroke-linejoin="round"
     stroke-miterlimit="10">
    <path d="M29.6 8v18.9c0 2.3-1.8 4.1-4.1 4.1h-19c-2.3 0-4.1-1.8-4.1-4.1V8c0-2.3 1.8-4.1 4.1-4.1h2.8v1.8a1.11 1.11 0 0 0 1.1 1.1h1.3c.6 0 1-.5 1-1.1V3.8h6.4v1.8a1.11 1.11 0 0 0 1.1 1.1h1.3a1.11 1.11 0 0 0 1.1-1.1V3.8h2.8A4.23 4.23 0 0 1 29.6 8z"/>
    <path d="M12.8 2.1v3.6c0 .6-.5 1.1-1 1.1h-1.3a1.11 1.11 0 0 1-1.1-1.1V2.1c-.1-.6.4-1.1 1-1.1h1.3a1.11 1.11 0 0 1 1.1 1.1zm9.9 0v3.6a1.11 1.11 0 0 1-1.1 1.1h-1.3a1.11 1.11 0 0 1-1.1-1.1V2.1A1.11 1.11 0 0 1 20.3 1h1.3a1.11 1.11 0 0 1 1.1 1.1z"/>
    <path d="M6.4 12.1h3.8m3.9 0h3.8m3.9 0h3.8M6.4 16.6h3.8m3.9 0h3.8m3.9 0h3.8M6.4 21.1h3.8m3.9 0h3.8m3.9 0h3.8M6.4 25.6h3.8m3.9 0h3.8"
          stroke-linecap="round"/>
</svg>